<svg xmlns="http://www.w3.org/2000/svg" xmlns:xlink="http://www.w3.org/1999/xlink" width="500"
  zoomAndPan="magnify" viewBox="0 0 375 374.999991" height="500" preserveAspectRatio="xMidYMid meet"
  version="1.0">
  <defs>
    <clipPath id="c40a4ec799">
      <path
        d="M 65.625 66.335938 L 309.375 66.335938 L 309.375 310.085938 L 65.625 310.085938 Z M 65.625 66.335938 "
        clip-rule="nonzero" />
    </clipPath>
    <clipPath id="a96cdfb708">
      <path
        d="M 71.625 66.335938 L 303.375 66.335938 C 306.6875 66.335938 309.375 69.023438 309.375 72.335938 L 309.375 304.085938 C 309.375 307.398438 306.6875 310.085938 303.375 310.085938 L 71.625 310.085938 C 68.3125 310.085938 65.625 307.398438 65.625 304.085938 L 65.625 72.335938 C 65.625 69.023438 68.3125 66.335938 71.625 66.335938 Z M 71.625 66.335938 "
        clip-rule="nonzero" />
    </clipPath>
    <clipPath id="b937d87e83">
      <path
        d="M 74.324219 73.203125 L 119.9375 73.203125 L 119.9375 118.816406 L 74.324219 118.816406 Z M 74.324219 73.203125 "
        clip-rule="nonzero" />
    </clipPath>
    <clipPath id="9ffb4157a6">
      <path
        d="M 97.128906 73.203125 C 84.535156 73.203125 74.324219 83.414062 74.324219 96.011719 C 74.324219 108.605469 84.535156 118.816406 97.128906 118.816406 C 109.726562 118.816406 119.9375 108.605469 119.9375 96.011719 C 119.9375 83.414062 109.726562 73.203125 97.128906 73.203125 Z M 97.128906 73.203125 "
        clip-rule="nonzero" />
    </clipPath>
    <clipPath id="c9bee6bc52">
      <path
        d="M 74.324219 257.714844 L 119.9375 257.714844 L 119.9375 303.328125 L 74.324219 303.328125 Z M 74.324219 257.714844 "
        clip-rule="nonzero" />
    </clipPath>
    <clipPath id="09bd749b80">
      <path
        d="M 97.128906 257.714844 C 84.535156 257.714844 74.324219 267.925781 74.324219 280.523438 C 74.324219 293.117188 84.535156 303.328125 97.128906 303.328125 C 109.726562 303.328125 119.9375 293.117188 119.9375 280.523438 C 119.9375 267.925781 109.726562 257.714844 97.128906 257.714844 Z M 97.128906 257.714844 "
        clip-rule="nonzero" />
    </clipPath>
    <clipPath id="3d873a3c88">
      <path
        d="M 255.0625 257.714844 L 300.675781 257.714844 L 300.675781 303.328125 L 255.0625 303.328125 Z M 255.0625 257.714844 "
        clip-rule="nonzero" />
    </clipPath>
    <clipPath id="e917b3e1db">
      <path
        d="M 277.871094 257.714844 C 265.273438 257.714844 255.0625 267.925781 255.0625 280.523438 C 255.0625 293.117188 265.273438 303.328125 277.871094 303.328125 C 290.464844 303.328125 300.675781 293.117188 300.675781 280.523438 C 300.675781 267.925781 290.464844 257.714844 277.871094 257.714844 Z M 277.871094 257.714844 "
        clip-rule="nonzero" />
    </clipPath>
    <clipPath id="518a6dafe0">
      <path
        d="M 255.0625 73.203125 L 300.675781 73.203125 L 300.675781 118.816406 L 255.0625 118.816406 Z M 255.0625 73.203125 "
        clip-rule="nonzero" />
    </clipPath>
    <clipPath id="7900f9ea5f">
      <path
        d="M 277.871094 73.203125 C 265.273438 73.203125 255.0625 83.414062 255.0625 96.011719 C 255.0625 108.605469 265.273438 118.816406 277.871094 118.816406 C 290.464844 118.816406 300.675781 108.605469 300.675781 96.011719 C 300.675781 83.414062 290.464844 73.203125 277.871094 73.203125 Z M 277.871094 73.203125 "
        clip-rule="nonzero" />
    </clipPath>
    <clipPath id="6fa87f2069">
      <path
        d="M 118.539062 118.816406 L 256.460938 118.816406 L 256.460938 256.738281 L 118.539062 256.738281 Z M 118.539062 118.816406 "
        clip-rule="nonzero" />
    </clipPath>
    <clipPath id="b7ae4d2813">
      <path
        d="M 187.5 118.816406 C 149.414062 118.816406 118.539062 149.691406 118.539062 187.777344 C 118.539062 225.863281 149.414062 256.738281 187.5 256.738281 C 225.585938 256.738281 256.460938 225.863281 256.460938 187.777344 C 256.460938 149.691406 225.585938 118.816406 187.5 118.816406 Z M 187.5 118.816406 "
        clip-rule="nonzero" />
    </clipPath>
    <clipPath id="51cb208785">
      <path
        d="M 118.539062 118.816406 L 256.457031 118.816406 L 256.457031 256.734375 L 118.539062 256.734375 Z M 118.539062 118.816406 "
        clip-rule="nonzero" />
    </clipPath>
    <clipPath id="67d4f2f9f6">
      <path
        d="M 187.496094 118.816406 C 149.414062 118.816406 118.539062 149.691406 118.539062 187.773438 C 118.539062 225.859375 149.414062 256.734375 187.496094 256.734375 C 225.582031 256.734375 256.457031 225.859375 256.457031 187.773438 C 256.457031 149.691406 225.582031 118.816406 187.496094 118.816406 Z M 187.496094 118.816406 "
        clip-rule="nonzero" />
    </clipPath>
    <clipPath id="2f93d5a3ba">
      <path
        d="M 86.28125 19.855469 L 111.59375 19.855469 L 111.59375 45.167969 L 86.28125 45.167969 Z M 86.28125 19.855469 "
        clip-rule="nonzero" />
    </clipPath>
    <clipPath id="556f2c57c3">
      <path
        d="M 98.9375 19.855469 C 91.949219 19.855469 86.28125 25.519531 86.28125 32.511719 C 86.28125 39.5 91.949219 45.167969 98.9375 45.167969 C 105.925781 45.167969 111.59375 39.5 111.59375 32.511719 C 111.59375 25.519531 105.925781 19.855469 98.9375 19.855469 Z M 98.9375 19.855469 "
        clip-rule="nonzero" />
    </clipPath>
    <clipPath id="a015453f37">
      <path
        d="M 84.472656 329.832031 L 109.789062 329.832031 L 109.789062 355.148438 L 84.472656 355.148438 Z M 84.472656 329.832031 "
        clip-rule="nonzero" />
    </clipPath>
    <clipPath id="5dd0b11c8a">
      <path
        d="M 97.128906 329.832031 C 90.140625 329.832031 84.472656 335.5 84.472656 342.488281 C 84.472656 349.480469 90.140625 355.148438 97.128906 355.148438 C 104.121094 355.148438 109.789062 349.480469 109.789062 342.488281 C 109.789062 335.5 104.121094 329.832031 97.128906 329.832031 Z M 97.128906 329.832031 "
        clip-rule="nonzero" />
    </clipPath>
    <clipPath id="25a00f4fa0">
      <path
        d="M 265.210938 329.832031 L 290.527344 329.832031 L 290.527344 355.148438 L 265.210938 355.148438 Z M 265.210938 329.832031 "
        clip-rule="nonzero" />
    </clipPath>
    <clipPath id="98a9eed6dc">
      <path
        d="M 277.871094 329.832031 C 270.878906 329.832031 265.210938 335.5 265.210938 342.488281 C 265.210938 349.480469 270.878906 355.148438 277.871094 355.148438 C 284.859375 355.148438 290.527344 349.480469 290.527344 342.488281 C 290.527344 335.5 284.859375 329.832031 277.871094 329.832031 Z M 277.871094 329.832031 "
        clip-rule="nonzero" />
    </clipPath>
    <clipPath id="ed2e47f887">
      <path
        d="M 267.019531 19.855469 L 292.332031 19.855469 L 292.332031 45.167969 L 267.019531 45.167969 Z M 267.019531 19.855469 "
        clip-rule="nonzero" />
    </clipPath>
    <clipPath id="62c7de283f">
      <path
        d="M 279.675781 19.855469 C 272.6875 19.855469 267.019531 25.519531 267.019531 32.511719 C 267.019531 39.5 272.6875 45.167969 279.675781 45.167969 C 286.667969 45.167969 292.332031 39.5 292.332031 32.511719 C 292.332031 25.519531 286.667969 19.855469 279.675781 19.855469 Z M 279.675781 19.855469 "
        clip-rule="nonzero" />
    </clipPath>
    <clipPath id="13e3bdd7ab">
      <path d="M 131.25 131.25 L 243.75 131.25 L 243.75 243.75 L 131.25 243.75 Z M 131.25 131.25 "
        clip-rule="nonzero" />
    </clipPath>
    <clipPath id="4e0a4987e8">
      <path
        d="M 187.5 131.25 C 156.433594 131.25 131.25 156.433594 131.25 187.5 C 131.25 218.566406 156.433594 243.75 187.5 243.75 C 218.566406 243.75 243.75 218.566406 243.75 187.5 C 243.75 156.433594 218.566406 131.25 187.5 131.25 Z M 187.5 131.25 "
        clip-rule="nonzero" />
    </clipPath>
  </defs>
  <path stroke-linecap="round" transform="matrix(0, 0.75, -0.75, 0, 111.309746, 19.856366)"
    fill="none" stroke-linejoin="miter" d="M 16.498805 16.501537 L 67.009225 16.501537 "
    stroke="#545454" stroke-width="33" stroke-opacity="1" stroke-miterlimit="4" />
  <path stroke-linecap="round" transform="matrix(0, 0.75, -0.75, 0, 292.048315, 19.856366)"
    fill="none" stroke-linejoin="miter" d="M 16.498805 16.501921 L 67.009225 16.501921 "
    stroke="#545454" stroke-width="33" stroke-opacity="1" stroke-miterlimit="4" />
  <path stroke-linecap="round" transform="matrix(0, 0.75, -0.75, 0, 109.502949, 292.518614)"
    fill="none" stroke-linejoin="miter" d="M 16.501224 16.498725 L 67.006435 16.498725 "
    stroke="#545454" stroke-width="33" stroke-opacity="1" stroke-miterlimit="4" />
  <path stroke-linecap="round" transform="matrix(0, 0.75, -0.75, 0, 290.241518, 292.518614)"
    fill="none" stroke-linejoin="miter" d="M 16.501224 16.499109 L 67.006435 16.499109 "
    stroke="#545454" stroke-width="33" stroke-opacity="1" stroke-miterlimit="4" />
  <g clip-path="url(#c40a4ec799)">
    <g clip-path="url(#a96cdfb708)">
      <path fill="#d9d9d9"
        d="M 65.625 66.335938 L 309.375 66.335938 L 309.375 310.085938 L 65.625 310.085938 Z M 65.625 66.335938 "
        fill-opacity="1" fill-rule="nonzero" />
      <path stroke-linecap="butt" transform="matrix(0.75, 0, 0, 0.75, 65.625, 66.335386)"
        fill="none" stroke-linejoin="miter"
        d="M 8 0.000735275 L 317.000021 0.000735275 C 321.416688 0.000735275 325.000021 3.584069 325.000021 8.000736 L 325.000021 317.000756 C 325.000021 321.417423 321.416688 325.000757 317.000021 325.000757 L 8 325.000757 C 3.583333 325.000757 -0.000000254167 321.417423 -0.000000254167 317.000756 L -0.000000254167 8.000736 C -0.000000254167 3.584069 3.583333 0.000735275 8 0.000735275 Z M 8 0.000735275 "
        stroke="#737373" stroke-width="4" stroke-opacity="1" stroke-miterlimit="4" />
    </g>
  </g>
  <g clip-path="url(#b937d87e83)">
    <g clip-path="url(#9ffb4157a6)">
      <path fill="#545454"
        d="M 74.324219 73.203125 L 119.9375 73.203125 L 119.9375 118.816406 L 74.324219 118.816406 Z M 74.324219 73.203125 "
        fill-opacity="1" fill-rule="nonzero" />
    </g>
  </g>
  <g clip-path="url(#c9bee6bc52)">
    <g clip-path="url(#09bd749b80)">
      <path fill="#545454"
        d="M 74.324219 257.714844 L 119.9375 257.714844 L 119.9375 303.328125 L 74.324219 303.328125 Z M 74.324219 257.714844 "
        fill-opacity="1" fill-rule="nonzero" />
    </g>
  </g>
  <g clip-path="url(#3d873a3c88)">
    <g clip-path="url(#e917b3e1db)">
      <path fill="#545454"
        d="M 255.0625 257.714844 L 300.675781 257.714844 L 300.675781 303.328125 L 255.0625 303.328125 Z M 255.0625 257.714844 "
        fill-opacity="1" fill-rule="nonzero" />
    </g>
  </g>
  <g clip-path="url(#518a6dafe0)">
    <g clip-path="url(#7900f9ea5f)">
      <path fill="#545454"
        d="M 255.0625 73.203125 L 300.675781 73.203125 L 300.675781 118.816406 L 255.0625 118.816406 Z M 255.0625 73.203125 "
        fill-opacity="1" fill-rule="nonzero" />
    </g>
  </g>
  <g clip-path="url(#6fa87f2069)">
    <g clip-path="url(#b7ae4d2813)">
      <path fill="#2c2c2c"
        d="M 118.539062 118.816406 L 256.460938 118.816406 L 256.460938 256.738281 L 118.539062 256.738281 Z M 118.539062 118.816406 "
        fill-opacity="1" fill-rule="nonzero" />
    </g>
  </g>
  <g clip-path="url(#51cb208785)">
    <g clip-path="url(#67d4f2f9f6)">
      <path stroke-linecap="butt" transform="matrix(0.75, 0, 0, 0.75, 118.539014, 118.815695)"
        fill="none" stroke-linejoin="miter"
        d="M 91.94278 0.000947803 C 41.166735 0.000947803 0.0000653121 41.167617 0.0000653121 91.943662 C 0.0000653121 142.724916 41.166735 183.891585 91.94278 183.891585 C 142.724033 183.891585 183.890702 142.724916 183.890702 91.943662 C 183.890702 41.167617 142.724033 0.000947803 91.94278 0.000947803 Z M 91.94278 0.000947803 "
        stroke="#434343" stroke-width="4" stroke-opacity="1" stroke-miterlimit="4" />
    </g>
  </g>
  <g id="terminal1bButton" clip-path="url(#2f93d5a3ba)">
    <g clip-path="url(#556f2c57c3)">
      <path fill="#545454"
        d="M 86.28125 19.855469 L 111.59375 19.855469 L 111.59375 45.167969 L 86.28125 45.167969 Z M 86.28125 19.855469 "
        fill-opacity="1" fill-rule="nonzero" />
    </g>
  </g>
  <g id="terminal1aButton" clip-path="url(#a015453f37)">
    <g clip-path="url(#5dd0b11c8a)">
      <path fill="#545454"
        d="M 84.472656 329.832031 L 109.789062 329.832031 L 109.789062 355.148438 L 84.472656 355.148438 Z M 84.472656 329.832031 "
        fill-opacity="1" fill-rule="nonzero" />
    </g>
  </g>
  <g id="terminal2aButton" clip-path="url(#25a00f4fa0)">
    <g clip-path="url(#98a9eed6dc)">
      <path fill="#545454"
        d="M 265.210938 329.832031 L 290.527344 329.832031 L 290.527344 355.148438 L 265.210938 355.148438 Z M 265.210938 329.832031 "
        fill-opacity="1" fill-rule="nonzero" />
    </g>
  </g>
  <g id="terminal2bButton" clip-path="url(#ed2e47f887)">
    <g clip-path="url(#62c7de283f)">
      <path fill="#545454"
        d="M 267.019531 19.855469 L 292.332031 19.855469 L 292.332031 45.167969 L 267.019531 45.167969 Z M 267.019531 19.855469 "
        fill-opacity="1" fill-rule="nonzero" />
    </g>
  </g>
  <g clip-path="url(#13e3bdd7ab)">
    <g clip-path="url(#4e0a4987e8)">
      <path fill="#152039"
        d="M 131.25 131.25 L 243.75 131.25 L 243.75 243.75 L 131.25 243.75 Z M 131.25 131.25 "
        fill-opacity="1" fill-rule="nonzero" />
    </g>
  </g>
</svg>