<svg xmlns="http://www.w3.org/2000/svg" xmlns:xlink="http://www.w3.org/1999/xlink" width="500" zoomAndPan="magnify" viewBox="0 0 375 374.999991" height="500" preserveAspectRatio="xMidYMid meet" version="1.0"><defs><clipPath id="2d63ab43f5"><path d="M 131.25 131.25 L 243.75 131.25 L 243.75 243.75 L 131.25 243.75 Z M 131.25 131.25 " clip-rule="nonzero"/></clipPath><clipPath id="bd34094c55"><path d="M 137.25 131.25 L 237.75 131.25 C 239.339844 131.25 240.867188 131.882812 241.992188 133.007812 C 243.117188 134.132812 243.75 135.660156 243.75 137.25 L 243.75 237.75 C 243.75 239.339844 243.117188 240.867188 241.992188 241.992188 C 240.867188 243.117188 239.339844 243.75 237.75 243.75 L 137.25 243.75 C 135.660156 243.75 134.132812 243.117188 133.007812 241.992188 C 131.882812 240.867188 131.25 239.339844 131.25 237.75 L 131.25 137.25 C 131.25 135.660156 131.882812 134.132812 133.007812 133.007812 C 134.132812 131.882812 135.660156 131.25 137.25 131.25 Z M 137.25 131.25 " clip-rule="nonzero"/></clipPath><clipPath id="b06bd6e2b8"><path d="M 135.265625 134.421875 L 156.316406 134.421875 L 156.316406 155.472656 L 135.265625 155.472656 Z M 135.265625 134.421875 " clip-rule="nonzero"/></clipPath><clipPath id="8286498530"><path d="M 145.792969 134.421875 C 139.976562 134.421875 135.265625 139.132812 135.265625 144.945312 C 135.265625 150.757812 139.976562 155.472656 145.792969 155.472656 C 151.605469 155.472656 156.316406 150.757812 156.316406 144.945312 C 156.316406 139.132812 151.605469 134.421875 145.792969 134.421875 Z M 145.792969 134.421875 " clip-rule="nonzero"/></clipPath><clipPath id="c884e47e33"><path d="M 135.265625 219.578125 L 156.316406 219.578125 L 156.316406 240.628906 L 135.265625 240.628906 Z M 135.265625 219.578125 " clip-rule="nonzero"/></clipPath><clipPath id="06c5aa0117"><path d="M 145.792969 219.578125 C 139.976562 219.578125 135.265625 224.292969 135.265625 230.105469 C 135.265625 235.917969 139.976562 240.628906 145.792969 240.628906 C 151.605469 240.628906 156.316406 235.917969 156.316406 230.105469 C 156.316406 224.292969 151.605469 219.578125 145.792969 219.578125 Z M 145.792969 219.578125 " clip-rule="nonzero"/></clipPath><clipPath id="12124aa1a4"><path d="M 218.683594 219.578125 L 239.734375 219.578125 L 239.734375 240.628906 L 218.683594 240.628906 Z M 218.683594 219.578125 " clip-rule="nonzero"/></clipPath><clipPath id="87446536ac"><path d="M 229.207031 219.578125 C 223.394531 219.578125 218.683594 224.292969 218.683594 230.105469 C 218.683594 235.917969 223.394531 240.628906 229.207031 240.628906 C 235.023438 240.628906 239.734375 235.917969 239.734375 230.105469 C 239.734375 224.292969 235.023438 219.578125 229.207031 219.578125 Z M 229.207031 219.578125 " clip-rule="nonzero"/></clipPath><clipPath id="809a26e223"><path d="M 218.683594 134.421875 L 239.734375 134.421875 L 239.734375 155.472656 L 218.683594 155.472656 Z M 218.683594 134.421875 " clip-rule="nonzero"/></clipPath><clipPath id="054f30a67c"><path d="M 229.207031 134.421875 C 223.394531 134.421875 218.683594 139.132812 218.683594 144.945312 C 218.683594 150.757812 223.394531 155.472656 229.207031 155.472656 C 235.023438 155.472656 239.734375 150.757812 239.734375 144.945312 C 239.734375 139.132812 235.023438 134.421875 229.207031 134.421875 Z M 229.207031 134.421875 " clip-rule="nonzero"/></clipPath><clipPath id="6aaacbcc87"><path d="M 155.671875 155.472656 L 219.328125 155.472656 L 219.328125 219.128906 L 155.671875 219.128906 Z M 155.671875 155.472656 " clip-rule="nonzero"/></clipPath><clipPath id="0e367d9fa8"><path d="M 187.5 155.472656 C 169.921875 155.472656 155.671875 169.722656 155.671875 187.300781 C 155.671875 204.878906 169.921875 219.128906 187.5 219.128906 C 205.078125 219.128906 219.328125 204.878906 219.328125 187.300781 C 219.328125 169.722656 205.078125 155.472656 187.5 155.472656 Z M 187.5 155.472656 " clip-rule="nonzero"/></clipPath></defs><path stroke-linecap="round" transform="matrix(0, 0.75, -0.75, 0, 152.246011, 109.800814)" fill="none" stroke-linejoin="miter" d="M 7.499957 7.499889 L 31.041626 7.499889 " stroke="#545454" stroke-width="15" stroke-opacity="1" stroke-miterlimit="4"/><path stroke-linecap="round" transform="matrix(0, 0.75, -0.75, 0, 235.663818, 109.800814)" fill="none" stroke-linejoin="miter" d="M 7.499957 7.499674 L 31.041626 7.499674 " stroke="#545454" stroke-width="15" stroke-opacity="1" stroke-miterlimit="4"/><path stroke-linecap="round" transform="matrix(0, 0.75, -0.75, 0, 151.412119, 235.645062)" fill="none" stroke-linejoin="miter" d="M 7.499293 7.497409 L 31.040961 7.497409 " stroke="#545454" stroke-width="15" stroke-opacity="1" stroke-miterlimit="4"/><path stroke-linecap="round" transform="matrix(0, 0.75, -0.75, 0, 234.829911, 235.645062)" fill="none" stroke-linejoin="miter" d="M 7.499293 7.502382 L 31.040961 7.502382 " stroke="#545454" stroke-width="15" stroke-opacity="1" stroke-miterlimit="4"/><g clip-path="url(#2d63ab43f5)"><g clip-path="url(#bd34094c55)"><path fill="#d9d9d9" d="M 131.25 131.25 L 243.75 131.25 L 243.75 243.75 L 131.25 243.75 Z M 131.25 131.25 " fill-opacity="1" fill-rule="nonzero"/><path stroke-linecap="butt" transform="matrix(0.75, 0, 0, 0.75, 131.249996, 131.249991)" fill="none" stroke-linejoin="miter" d="M 8.000006 0.0000114917 L 142.000015 0.0000114917 C 144.119807 0.0000114917 146.156265 0.843762 147.656265 2.343762 C 149.156265 3.843762 150.000015 5.88022 150.000015 8.000012 L 150.000015 142.000021 C 150.000015 144.119813 149.156265 146.156271 147.656265 147.656271 C 146.156265 149.156271 144.119807 150.000021 142.000015 150.000021 L 8.000006 150.000021 C 5.880214 150.000021 3.843756 149.156271 2.343756 147.656271 C 0.843756 146.156271 0.00000549167 144.119813 0.00000549167 142.000021 L 0.00000549167 8.000012 C 0.00000549167 5.88022 0.843756 3.843762 2.343756 2.343762 C 3.843756 0.843762 5.880214 0.0000114917 8.000006 0.0000114917 Z M 8.000006 0.0000114917 " stroke="#737373" stroke-width="4" stroke-opacity="1" stroke-miterlimit="4"/></g></g><g clip-path="url(#b06bd6e2b8)"><g clip-path="url(#8286498530)"><path fill="#545454" d="M 135.265625 134.421875 L 156.316406 134.421875 L 156.316406 155.472656 L 135.265625 155.472656 Z M 135.265625 134.421875 " fill-opacity="1" fill-rule="nonzero"/></g></g><g clip-path="url(#c884e47e33)"><g clip-path="url(#06c5aa0117)"><path fill="#545454" d="M 135.265625 219.578125 L 156.316406 219.578125 L 156.316406 240.628906 L 135.265625 240.628906 Z M 135.265625 219.578125 " fill-opacity="1" fill-rule="nonzero"/></g></g><g clip-path="url(#12124aa1a4)"><g clip-path="url(#87446536ac)"><path fill="#545454" d="M 218.683594 219.578125 L 239.734375 219.578125 L 239.734375 240.628906 L 218.683594 240.628906 Z M 218.683594 219.578125 " fill-opacity="1" fill-rule="nonzero"/></g></g><g clip-path="url(#809a26e223)"><g clip-path="url(#054f30a67c)"><path fill="#545454" d="M 218.683594 134.421875 L 239.734375 134.421875 L 239.734375 155.472656 L 218.683594 155.472656 Z M 218.683594 134.421875 " fill-opacity="1" fill-rule="nonzero"/></g></g><g clip-path="url(#6aaacbcc87)"><g clip-path="url(#0e367d9fa8)"><path fill="#2c2c2c" d="M 155.671875 155.472656 L 219.328125 155.472656 L 219.328125 219.128906 L 155.671875 219.128906 Z M 155.671875 155.472656 " fill-opacity="1" fill-rule="nonzero"/><path stroke-linecap="butt" transform="matrix(0.75, 0, 0, 0.75, 155.67184, 155.471591)" fill="none" stroke-linejoin="miter" d="M 42.43755 0.00141981 C 19.000048 0.00141981 0.0000468299 19.001421 0.0000468299 42.438923 C 0.0000468299 65.876424 19.000048 84.876425 42.43755 84.876425 C 65.875051 84.876425 84.875052 65.876424 84.875052 42.438923 C 84.875052 19.001421 65.875051 0.00141981 42.43755 0.00141981 Z M 42.43755 0.00141981 " stroke="#434343" stroke-width="4" stroke-opacity="1" stroke-miterlimit="4"/></g></g></svg>