<svg xmlns="http://www.w3.org/2000/svg" xmlns:xlink="http://www.w3.org/1999/xlink" width="500" zoomAndPan="magnify" viewBox="0 0 375 374.999991" height="500" preserveAspectRatio="xMidYMid meet" version="1.0"><defs><clipPath id="6a7e549d7d"><path d="M 131.25 72.359375 L 243.75 72.359375 L 243.75 184.859375 L 131.25 184.859375 Z M 131.25 72.359375 " clip-rule="nonzero"/></clipPath><clipPath id="4de5bc9fd9"><path d="M 187.5 72.359375 C 156.433594 72.359375 131.25 97.542969 131.25 128.609375 C 131.25 159.675781 156.433594 184.859375 187.5 184.859375 C 218.566406 184.859375 243.75 159.675781 243.75 128.609375 C 243.75 97.542969 218.566406 72.359375 187.5 72.359375 Z M 187.5 72.359375 " clip-rule="nonzero"/></clipPath><clipPath id="d4937b5ea7"><path d="M 131.25 130.109375 L 243.75 130.109375 L 243.75 195.390625 L 131.25 195.390625 Z M 131.25 130.109375 " clip-rule="nonzero"/></clipPath><clipPath id="edc7aa942e"><path d="M 122.355469 190.539062 L 252.644531 190.539062 L 252.644531 217.5 L 122.355469 217.5 Z M 122.355469 190.539062 " clip-rule="nonzero"/></clipPath></defs><g clip-path="url(#6a7e549d7d)"><g clip-path="url(#4de5bc9fd9)"><path fill="#830000" d="M 131.25 72.359375 L 243.75 72.359375 L 243.75 184.859375 L 131.25 184.859375 Z M 131.25 72.359375 " fill-opacity="1" fill-rule="nonzero"/></g></g><g clip-path="url(#d4937b5ea7)"><path fill="#830000" d="M 131.25 130.109375 L 243.707031 130.109375 L 243.707031 195.390625 L 131.25 195.390625 Z M 131.25 130.109375 " fill-opacity="1" fill-rule="nonzero"/></g><path stroke-linecap="round" transform="matrix(0, 0.75, -0.75, 0, 227.086175, 204.02294)" fill="none" stroke-linejoin="miter" d="M 7.500664 7.500317 L 43.130874 7.500317 " stroke="#545454" stroke-width="15" stroke-opacity="1" stroke-miterlimit="4"/><path stroke-linecap="round" transform="matrix(0.460246, 0.592177, -0.592177, 0.460246, 222.747338, 230.688179)" fill="none" stroke-linejoin="miter" d="M 7.500677 7.500605 L 23.226969 7.500073 " stroke="#545454" stroke-width="15" stroke-opacity="1" stroke-miterlimit="4"/><path stroke-linecap="round" transform="matrix(0, 0.75, -0.75, 0, 234.961175, 243.620946)" fill="none" stroke-linejoin="miter" d="M 7.500198 7.500317 L 43.130409 7.500317 " stroke="#545454" stroke-width="15" stroke-opacity="1" stroke-miterlimit="4"/><path stroke-linecap="round" transform="matrix(0.000000001309, 0.75, -0.75, 0.000000001309, 160.59411, 204.023132)" fill="none" stroke-linejoin="miter" d="M 7.500408 7.50048 L 95.927497 7.500481 " stroke="#545454" stroke-width="15" stroke-opacity="1" stroke-miterlimit="4"/><g clip-path="url(#edc7aa942e)"><path fill="#830000" d="M 122.355469 190.539062 L 252.621094 190.539062 L 252.621094 217.5 L 122.355469 217.5 Z M 122.355469 190.539062 " fill-opacity="1" fill-rule="nonzero"/></g></svg>