<svg xmlns="http://www.w3.org/2000/svg" xmlns:xlink="http://www.w3.org/1999/xlink" width="500" zoomAndPan="magnify" viewBox="0 0 375 374.999991" height="500" preserveAspectRatio="xMidYMid meet" version="1.0"><defs><clipPath id="6f0c85ef26"><path d="M 37.5 9.914062 L 351.5625 9.914062 L 351.5625 323.976562 L 37.5 323.976562 Z M 37.5 9.914062 " clip-rule="nonzero"/></clipPath><clipPath id="cc06f13e5a"><path d="M 194.53125 9.914062 C 107.804688 9.914062 37.5 80.222656 37.5 166.945312 C 37.5 253.671875 107.804688 323.976562 194.53125 323.976562 C 281.257812 323.976562 351.5625 253.671875 351.5625 166.945312 C 351.5625 80.222656 281.257812 9.914062 194.53125 9.914062 Z M 194.53125 9.914062 " clip-rule="nonzero"/></clipPath><clipPath id="0c023221a1"><path d="M 71 43.414062 L 316.667969 43.414062 L 316.667969 289.082031 L 71 289.082031 Z M 71 43.414062 " clip-rule="nonzero"/></clipPath><clipPath id="6866dd77bf"><path d="M 193.832031 43.414062 C 125.996094 43.414062 71 98.410156 71 166.25 C 71 234.089844 125.996094 289.082031 193.832031 289.082031 C 261.671875 289.082031 316.667969 234.089844 316.667969 166.25 C 316.667969 98.410156 261.671875 43.414062 193.832031 43.414062 Z M 193.832031 43.414062 " clip-rule="nonzero"/></clipPath><clipPath id="6cee05f695"><path d="M 71 43.414062 L 316.660156 43.414062 L 316.660156 289.074219 L 71 289.074219 Z M 71 43.414062 " clip-rule="nonzero"/></clipPath><clipPath id="82ff76ff4c"><path d="M 193.828125 43.414062 C 125.992188 43.414062 71 98.410156 71 166.246094 C 71 234.082031 125.992188 289.074219 193.828125 289.074219 C 261.667969 289.074219 316.660156 234.082031 316.660156 166.246094 C 316.660156 98.410156 261.667969 43.414062 193.828125 43.414062 Z M 193.828125 43.414062 " clip-rule="nonzero"/></clipPath><clipPath id="45f149accf"><path d="M 124 184 L 188 184 L 188 258 L 124 258 Z M 124 184 " clip-rule="nonzero"/></clipPath><clipPath id="713c55e4e1"><path d="M 192.433594 193.96875 L 137.941406 261.902344 L 120.03125 247.535156 L 174.523438 179.601562 Z M 192.433594 193.96875 " clip-rule="nonzero"/></clipPath><clipPath id="276b1395aa"><path d="M 185.25 202.921875 L 145.148438 252.917969 C 141.179688 257.863281 133.957031 258.65625 129.007812 254.691406 C 124.0625 250.722656 123.269531 243.496094 127.238281 238.550781 L 167.339844 188.558594 C 171.308594 183.613281 178.53125 182.816406 183.476562 186.785156 C 188.425781 190.753906 189.21875 197.976562 185.25 202.921875 Z M 185.25 202.921875 " clip-rule="nonzero"/></clipPath><clipPath id="643392263c"><path d="M 100.996094 275.871094 L 109.511719 275.871094 L 109.511719 284.386719 L 100.996094 284.386719 Z M 100.996094 275.871094 " clip-rule="nonzero"/></clipPath><clipPath id="61adb58a8c"><path d="M 105.253906 275.871094 C 102.902344 275.871094 100.996094 277.777344 100.996094 280.128906 C 100.996094 282.480469 102.902344 284.386719 105.253906 284.386719 C 107.605469 284.386719 109.511719 282.480469 109.511719 280.128906 C 109.511719 277.777344 107.605469 275.871094 105.253906 275.871094 Z M 105.253906 275.871094 " clip-rule="nonzero"/></clipPath><clipPath id="a7a0b9d24a"><path d="M 283.5625 275.871094 L 292.082031 275.871094 L 292.082031 284.386719 L 283.5625 284.386719 Z M 283.5625 275.871094 " clip-rule="nonzero"/></clipPath><clipPath id="f64cc1ea14"><path d="M 287.820312 275.871094 C 285.46875 275.871094 283.5625 277.777344 283.5625 280.128906 C 283.5625 282.480469 285.46875 284.386719 287.820312 284.386719 C 290.175781 284.386719 292.082031 282.480469 292.082031 280.128906 C 292.082031 277.777344 290.175781 275.871094 287.820312 275.871094 Z M 287.820312 275.871094 " clip-rule="nonzero"/></clipPath><clipPath id="4625d58688"><path d="M 334.671875 179.601562 L 343.1875 179.601562 L 343.1875 188.121094 L 334.671875 188.121094 Z M 334.671875 179.601562 " clip-rule="nonzero"/></clipPath><clipPath id="769238cf84"><path d="M 338.929688 179.601562 C 336.578125 179.601562 334.671875 181.507812 334.671875 183.863281 C 334.671875 186.214844 336.578125 188.121094 338.929688 188.121094 C 341.28125 188.121094 343.1875 186.214844 343.1875 183.863281 C 343.1875 181.507812 341.28125 179.601562 338.929688 179.601562 Z M 338.929688 179.601562 " clip-rule="nonzero"/></clipPath><clipPath id="54eff2a44f"><path d="M 43.640625 179.601562 L 52.15625 179.601562 L 52.15625 188.121094 L 43.640625 188.121094 Z M 43.640625 179.601562 " clip-rule="nonzero"/></clipPath><clipPath id="915742a230"><path d="M 47.898438 179.601562 C 45.546875 179.601562 43.640625 181.507812 43.640625 183.863281 C 43.640625 186.214844 45.546875 188.121094 47.898438 188.121094 C 50.25 188.121094 52.15625 186.214844 52.15625 183.863281 C 52.15625 181.507812 50.25 179.601562 47.898438 179.601562 Z M 47.898438 179.601562 " clip-rule="nonzero"/></clipPath><clipPath id="7ba1678e9d"><path d="M 71 75.773438 L 79.515625 75.773438 L 79.515625 84.289062 L 71 84.289062 Z M 71 75.773438 " clip-rule="nonzero"/></clipPath><clipPath id="8c0ce5a2eb"><path d="M 75.257812 75.773438 C 72.90625 75.773438 71 77.679688 71 80.03125 C 71 82.382812 72.90625 84.289062 75.257812 84.289062 C 77.609375 84.289062 79.515625 82.382812 79.515625 80.03125 C 79.515625 77.679688 77.609375 75.773438 75.257812 75.773438 Z M 75.257812 75.773438 " clip-rule="nonzero"/></clipPath><clipPath id="e44a0f93f2"><path d="M 308.152344 75.773438 L 316.667969 75.773438 L 316.667969 84.289062 L 308.152344 84.289062 Z M 308.152344 75.773438 " clip-rule="nonzero"/></clipPath><clipPath id="f22d3d8106"><path d="M 312.410156 75.773438 C 310.058594 75.773438 308.152344 77.679688 308.152344 80.03125 C 308.152344 82.382812 310.058594 84.289062 312.410156 84.289062 C 314.761719 84.289062 316.667969 82.382812 316.667969 80.03125 C 316.667969 77.679688 314.761719 75.773438 312.410156 75.773438 Z M 312.410156 75.773438 " clip-rule="nonzero"/></clipPath><clipPath id="b3669af838"><path d="M 189.574219 17.71875 L 198.089844 17.71875 L 198.089844 26.234375 L 189.574219 26.234375 Z M 189.574219 17.71875 " clip-rule="nonzero"/></clipPath><clipPath id="8e3e678633"><path d="M 193.832031 17.71875 C 191.480469 17.71875 189.574219 19.625 189.574219 21.976562 C 189.574219 24.328125 191.480469 26.234375 193.832031 26.234375 C 196.183594 26.234375 198.089844 24.328125 198.089844 21.976562 C 198.089844 19.625 196.183594 17.71875 193.832031 17.71875 Z M 193.832031 17.71875 " clip-rule="nonzero"/></clipPath></defs><path stroke-linecap="round" transform="matrix(0, 0.75, -0.75, 0, 141.186646, 284.388145)" fill="none" stroke-linejoin="miter" d="M 20.9981 20.998862 L 86.597063 20.998862 " stroke="#545454" stroke-width="42" stroke-opacity="1" stroke-miterlimit="4"/><path stroke-linecap="round" transform="matrix(0, 0.75, -0.75, 0, 210.28039, 284.388145)" fill="none" stroke-linejoin="miter" d="M 20.9981 20.998855 L 86.597063 20.998855 " stroke="#545454" stroke-width="42" stroke-opacity="1" stroke-miterlimit="4"/><path stroke-linecap="round" transform="matrix(0, 0.75, -0.75, 0, 279.374137, 284.388145)" fill="none" stroke-linejoin="miter" d="M 20.9981 20.99885 L 86.597063 20.99885 " stroke="#545454" stroke-width="42" stroke-opacity="1" stroke-miterlimit="4"/><g clip-path="url(#6f0c85ef26)"><g clip-path="url(#cc06f13e5a)"><path fill="#38b6ff" d="M 37.5 9.914062 L 351.5625 9.914062 L 351.5625 323.976562 L 37.5 323.976562 Z M 37.5 9.914062 " fill-opacity="1" fill-rule="nonzero"/><path stroke-linecap="butt" transform="matrix(0.75, 0, 0, 0.75, 37.500002, 9.915669)" fill="none" stroke-linejoin="miter" d="M 209.375011 -0.00214257 C 93.739587 -0.00214257 -0.00000271667 93.742655 -0.00000271667 209.372871 C -0.00000271667 325.008295 93.739587 418.747885 209.375011 418.747885 C 325.010435 418.747885 418.750025 325.008295 418.750025 209.372871 C 418.750025 93.742655 325.010435 -0.00214257 209.375011 -0.00214257 Z M 209.375011 -0.00214257 " stroke="#00265a" stroke-width="22" stroke-opacity="1" stroke-miterlimit="4"/></g></g><g clip-path="url(#0c023221a1)"><g clip-path="url(#6866dd77bf)"><path fill="#0cc0df" d="M 71 43.414062 L 316.667969 43.414062 L 316.667969 289.082031 L 71 289.082031 Z M 71 43.414062 " fill-opacity="1" fill-rule="nonzero"/></g></g><g clip-path="url(#6cee05f695)"><g clip-path="url(#82ff76ff4c)"><path stroke-linecap="butt" transform="matrix(0.75, 0, 0, 0.75, 70.999994, 43.415671)" fill="none" stroke-linejoin="miter" d="M 163.770852 -0.00214433 C 73.322929 -0.00214433 0.00000768311 73.325985 0.00000768311 163.773908 C 0.00000768311 254.221831 73.322929 327.544752 163.770852 327.544752 C 254.223983 327.544752 327.546904 254.221831 327.546904 163.773908 C 327.546904 73.325985 254.223983 -0.00214433 163.770852 -0.00214433 Z M 163.770852 -0.00214433 " stroke="#00265a" stroke-width="20" stroke-opacity="1" stroke-miterlimit="4"/></g></g><g clip-path="url(#45f149accf)"><g clip-path="url(#713c55e4e1)"><g clip-path="url(#276b1395aa)"><path fill="#00265a" d="M 192.433594 193.96875 L 137.941406 261.902344 L 120.03125 247.535156 L 174.523438 179.601562 Z M 192.433594 193.96875 " fill-opacity="1" fill-rule="nonzero"/></g></g></g><g clip-path="url(#643392263c)"><g clip-path="url(#61adb58a8c)"><path fill="#d9d9d9" d="M 100.996094 275.871094 L 109.511719 275.871094 L 109.511719 284.386719 L 100.996094 284.386719 Z M 100.996094 275.871094 " fill-opacity="1" fill-rule="nonzero"/></g></g><g clip-path="url(#a7a0b9d24a)"><g clip-path="url(#f64cc1ea14)"><path fill="#d9d9d9" d="M 283.5625 275.871094 L 292.082031 275.871094 L 292.082031 284.386719 L 283.5625 284.386719 Z M 283.5625 275.871094 " fill-opacity="1" fill-rule="nonzero"/></g></g><g clip-path="url(#4625d58688)"><g clip-path="url(#769238cf84)"><path fill="#d9d9d9" d="M 334.671875 179.601562 L 343.1875 179.601562 L 343.1875 188.121094 L 334.671875 188.121094 Z M 334.671875 179.601562 " fill-opacity="1" fill-rule="nonzero"/></g></g><g clip-path="url(#54eff2a44f)"><g clip-path="url(#915742a230)"><path fill="#d9d9d9" d="M 43.640625 179.601562 L 52.15625 179.601562 L 52.15625 188.121094 L 43.640625 188.121094 Z M 43.640625 179.601562 " fill-opacity="1" fill-rule="nonzero"/></g></g><g clip-path="url(#7ba1678e9d)"><g clip-path="url(#8c0ce5a2eb)"><path fill="#d9d9d9" d="M 71 75.773438 L 79.515625 75.773438 L 79.515625 84.289062 L 71 84.289062 Z M 71 75.773438 " fill-opacity="1" fill-rule="nonzero"/></g></g><g clip-path="url(#e44a0f93f2)"><g clip-path="url(#f22d3d8106)"><path fill="#d9d9d9" d="M 308.152344 75.773438 L 316.667969 75.773438 L 316.667969 84.289062 L 308.152344 84.289062 Z M 308.152344 75.773438 " fill-opacity="1" fill-rule="nonzero"/></g></g><g clip-path="url(#b3669af838)"><g clip-path="url(#8e3e678633)"><path fill="#d9d9d9" d="M 189.574219 17.71875 L 198.089844 17.71875 L 198.089844 26.234375 L 189.574219 26.234375 Z M 189.574219 17.71875 " fill-opacity="1" fill-rule="nonzero"/></g></g></svg>