<svg xmlns="http://www.w3.org/2000/svg" xmlns:xlink="http://www.w3.org/1999/xlink" width="500"
  zoomAndPan="magnify" viewBox="0 0 375 374.999991" height="500" preserveAspectRatio="xMidYMid meet"
  version="1.0">
  <defs>
    <clipPath id="ebed6b02ad">
      <path
        d="M 132.449219 100.542969 L 242.550781 100.542969 L 242.550781 360 L 132.449219 360 Z M 132.449219 100.542969 "
        clip-rule="nonzero" />
    </clipPath>
    <clipPath id="ab08c19d98">
      <path
        d="M 132.449219 100.546875 L 242.546875 100.546875 L 242.546875 360.042969 L 132.449219 360.042969 Z M 132.449219 100.546875 "
        clip-rule="nonzero" />
    </clipPath>
    <clipPath id="fbf52567db">
      <path
        d="M 147.546875 14.925781 L 227.453125 14.925781 L 227.453125 70.820312 L 147.546875 70.820312 Z M 147.546875 14.925781 "
        clip-rule="nonzero" />
    </clipPath>
    <clipPath id="86100e85c3">
      <path
        d="M 156.660156 20.113281 L 169.542969 20.113281 L 169.542969 33.367188 L 156.660156 33.367188 Z M 156.660156 20.113281 "
        clip-rule="nonzero" />
    </clipPath>
    <clipPath id="424dc4896c">
      <path
        d="M 205.441406 20.113281 L 218.320312 20.113281 L 218.320312 33.367188 L 205.441406 33.367188 Z M 205.441406 20.113281 "
        clip-rule="nonzero" />
    </clipPath>
    <clipPath id="b4c66088fe">
      <path
        d="M 181.234375 20.113281 L 194.113281 20.113281 L 194.113281 33.367188 L 181.234375 33.367188 Z M 181.234375 20.113281 "
        clip-rule="nonzero" />
    </clipPath>
    <clipPath id="d0fd89cede">
      <path
        d="M 172.085938 84.785156 L 202.914062 84.785156 L 202.914062 326.964844 L 172.085938 326.964844 Z M 172.085938 84.785156 "
        clip-rule="nonzero" />
    </clipPath>
    <clipPath id="b3163e1e26">
      <path
        d="M 187.5 84.785156 C 191.589844 84.785156 195.507812 86.410156 198.398438 89.300781 C 201.289062 92.191406 202.914062 96.113281 202.914062 100.199219 L 202.914062 311.480469 C 202.914062 315.566406 201.289062 319.488281 198.398438 322.378906 C 195.507812 325.269531 191.589844 326.894531 187.5 326.894531 C 183.410156 326.894531 179.492188 325.269531 176.601562 322.378906 C 173.710938 319.488281 172.085938 315.566406 172.085938 311.480469 L 172.085938 100.199219 C 172.085938 96.113281 173.710938 92.191406 176.601562 89.300781 C 179.492188 86.410156 183.410156 84.785156 187.5 84.785156 Z M 187.5 84.785156 "
        clip-rule="nonzero" />
    </clipPath>
    <clipPath id="29e7461008">
      <path
        d="M 172.085938 84.785156 L 203 84.785156 L 203 327 L 172.085938 327 Z M 172.085938 84.785156 "
        clip-rule="nonzero" />
    </clipPath>
    <clipPath id="b1c55de333">
      <path
        d="M 187.496094 84.820312 C 191.582031 84.820312 195.5 86.445312 198.390625 89.335938 C 201.28125 92.226562 202.90625 96.144531 202.90625 100.230469 L 202.90625 311.441406 C 202.90625 315.53125 201.28125 319.449219 198.390625 322.339844 C 195.5 325.230469 191.582031 326.851562 187.496094 326.851562 C 183.40625 326.851562 179.488281 325.230469 176.597656 322.339844 C 173.707031 319.449219 172.085938 315.53125 172.085938 311.441406 L 172.085938 100.230469 C 172.085938 96.144531 173.707031 92.226562 176.597656 89.335938 C 179.488281 86.445312 183.40625 84.820312 187.496094 84.820312 Z M 187.496094 84.820312 "
        clip-rule="nonzero" />
    </clipPath>
    <clipPath id="e5d9c4fcbf">
      <path
        d="M 134.605469 190.421875 L 240.820312 190.421875 L 240.820312 221.25 L 134.605469 221.25 Z M 134.605469 190.421875 "
        clip-rule="nonzero" />
    </clipPath>
    <clipPath id="121486b68f">
      <path
        d="M 134.605469 205.835938 C 134.605469 201.746094 136.230469 197.824219 139.121094 194.933594 C 142.011719 192.042969 145.933594 190.421875 150.019531 190.421875 L 225.320312 190.421875 C 229.40625 190.421875 233.328125 192.042969 236.21875 194.933594 C 239.109375 197.824219 240.734375 201.746094 240.734375 205.835938 C 240.734375 209.921875 239.109375 213.84375 236.21875 216.734375 C 233.328125 219.625 229.40625 221.25 225.320312 221.25 L 150.019531 221.25 C 145.933594 221.25 142.011719 219.625 139.121094 216.734375 C 136.230469 213.84375 134.605469 209.921875 134.605469 205.835938 Z M 134.605469 205.835938 "
        clip-rule="nonzero" />
    </clipPath>
    <clipPath id="762bd7b500">
      <path
        d="M 134.605469 190.292969 L 240.304688 190.292969 L 240.304688 221.25 L 134.605469 221.25 Z M 134.605469 190.292969 "
        clip-rule="nonzero" />
    </clipPath>
    <clipPath id="58a647a5a3">
      <path
        d="M 134.621094 205.839844 C 134.621094 201.753906 136.246094 197.832031 139.136719 194.945312 C 142.027344 192.054688 145.945312 190.429688 150.03125 190.429688 L 225.308594 190.429688 C 229.394531 190.429688 233.3125 192.054688 236.203125 194.945312 C 239.09375 197.832031 240.71875 201.753906 240.71875 205.839844 C 240.71875 209.925781 239.09375 213.847656 236.203125 216.734375 C 233.3125 219.625 229.394531 221.25 225.308594 221.25 L 150.03125 221.25 C 145.945312 221.25 142.027344 219.625 139.136719 216.734375 C 136.246094 213.847656 134.621094 209.925781 134.621094 205.839844 Z M 134.621094 205.839844 "
        clip-rule="nonzero" />
    </clipPath>
    <clipPath id="7a6968df48">
      <path
        d="M 175.261719 193.601562 L 199.738281 193.601562 L 199.738281 218.082031 L 175.261719 218.082031 Z M 175.261719 193.601562 "
        clip-rule="nonzero" />
    </clipPath>
    <clipPath id="c061e49cc2">
      <path
        d="M 187.5 193.601562 C 180.738281 193.601562 175.261719 199.078125 175.261719 205.839844 C 175.261719 212.601562 180.738281 218.082031 187.5 218.082031 C 194.261719 218.082031 199.738281 212.601562 199.738281 205.839844 C 199.738281 199.078125 194.261719 193.601562 187.5 193.601562 Z M 187.5 193.601562 "
        clip-rule="nonzero" />
    </clipPath>
    <clipPath id="3a209f776f">
      <path
        d="M 175.261719 193.601562 L 199.738281 193.601562 L 199.738281 218.078125 L 175.261719 218.078125 Z M 175.261719 193.601562 "
        clip-rule="nonzero" />
    </clipPath>
    <clipPath id="ba277378f1">
      <path
        d="M 187.5 193.601562 C 180.738281 193.601562 175.261719 199.078125 175.261719 205.839844 C 175.261719 212.597656 180.738281 218.078125 187.5 218.078125 C 194.257812 218.078125 199.738281 212.597656 199.738281 205.839844 C 199.738281 199.078125 194.257812 193.601562 187.5 193.601562 Z M 187.5 193.601562 "
        clip-rule="nonzero" />
    </clipPath>
  </defs>
  <path stroke-linecap="butt"
    transform="matrix(-0.414175, -0.625267, 0.625267, -0.414175, 184.68616, 102.406488)" fill="none"
    stroke-linejoin="miter" d="M -0.000397179 4.499956 L 58.906422 4.498805 " stroke="#830000"
    stroke-width="9" stroke-opacity="1" stroke-miterlimit="4" />
  <path stroke-linecap="butt"
    transform="matrix(0.413969, -0.625403, 0.625403, 0.413969, 184.685164, 98.678929)" fill="none"
    stroke-linejoin="miter" d="M -0.000926781 4.501446 L 58.891516 4.500235 " stroke="#ff6341"
    stroke-width="9" stroke-opacity="1" stroke-miterlimit="4" />
  <g clip-path="url(#ebed6b02ad)">
    <path fill="#004aad"
      d="M 132.449219 100.542969 L 242.550781 100.542969 L 242.550781 359.890625 L 132.449219 359.890625 Z M 132.449219 100.542969 "
      fill-opacity="1" fill-rule="nonzero" />
  </g>
  <g clip-path="url(#ab08c19d98)">
    <path stroke-linecap="butt" transform="matrix(0.75, 0, 0, 0.75, 132.447651, 100.546503)"
      fill="none" stroke-linejoin="miter"
      d="M 0.00209033 0.000496003 L 146.798975 0.000496003 L 146.798975 346.021352 L 0.00209033 346.021352 Z M 0.00209033 0.000496003 "
      stroke="#003173" stroke-width="12" stroke-opacity="1" stroke-miterlimit="4" />
  </g>
  <g clip-path="url(#fbf52567db)">
    <path fill="#262525"
      d="M 147.546875 14.925781 L 227.457031 14.925781 L 227.457031 70.820312 L 147.546875 70.820312 Z M 147.546875 14.925781 "
      fill-opacity="1" fill-rule="nonzero" />
  </g>
  <g id="groundServo" clip-path="url(#86100e85c3)">
    <path fill="#000000"
      d="M 156.660156 20.113281 L 169.542969 20.113281 L 169.542969 33.34375 L 156.660156 33.34375 Z M 156.660156 20.113281 "
      fill-opacity="1" fill-rule="nonzero" />
  </g>
  <g id="signalServo" clip-path="url(#424dc4896c)">
    <path fill="#000000"
      d="M 205.441406 20.113281 L 218.320312 20.113281 L 218.320312 33.34375 L 205.441406 33.34375 Z M 205.441406 20.113281 "
      fill-opacity="1" fill-rule="nonzero" />
  </g>
  <g id="powerServo" clip-path="url(#b4c66088fe)">
    <path fill="#000000"
      d="M 181.234375 20.113281 L 194.113281 20.113281 L 194.113281 33.34375 L 181.234375 33.34375 Z M 181.234375 20.113281 "
      fill-opacity="1" fill-rule="nonzero" />
  </g>
  <path stroke-linecap="butt"
    transform="matrix(0.000000001309, -0.75, 0.75, 0.000000001309, 184.12224, 100.540013)"
    fill="none" stroke-linejoin="miter" d="M 0.00126787 4.498472 L 39.631479 4.498472 "
    stroke="#ff3131" stroke-width="9" stroke-opacity="1" stroke-miterlimit="4" />
  <g clip-path="url(#d0fd89cede)">
    <g clip-path="url(#b3163e1e26)">
      <path fill="#ffffff"
        d="M 172.085938 84.785156 L 202.914062 84.785156 L 202.914062 326.84375 L 172.085938 326.84375 Z M 172.085938 84.785156 "
        fill-opacity="1" fill-rule="nonzero" />
    </g>
  </g>
  <g clip-path="url(#29e7461008)">
    <g clip-path="url(#b1c55de333)">
      <path stroke-linecap="butt" transform="matrix(0.943754, 0, 0, 0.943754, 172.08534, 84.821486)"
        fill="none" stroke-linejoin="miter"
        d="M 16.329203 -0.00124305 C 20.658653 -0.00124305 24.810125 1.720604 27.873025 4.783504 C 30.935926 7.846404 32.657772 11.997876 32.657772 16.327327 L 32.657772 240.126001 C 32.657772 244.459591 30.935926 248.611063 27.873025 251.673963 C 24.810125 254.736863 20.658653 256.454571 16.329203 256.454571 C 11.995612 256.454571 7.844141 254.736863 4.781241 251.673963 C 1.71834 248.611063 0.000632686 244.459591 0.000632686 240.126001 L 0.000632686 16.327327 C 0.000632686 11.997876 1.71834 7.846404 4.781241 4.783504 C 7.844141 1.720604 11.995612 -0.00124305 16.329203 -0.00124305 Z M 16.329203 -0.00124305 "
        stroke="#545454" stroke-width="1.589397" stroke-opacity="1" stroke-miterlimit="4" />
    </g>
  </g>
  <g clip-path="url(#e5d9c4fcbf)">
    <g clip-path="url(#121486b68f)">
      <path fill="#ffffff"
        d="M 134.605469 221.25 L 134.605469 190.421875 L 240.703125 190.421875 L 240.703125 221.25 Z M 134.605469 221.25 "
        fill-opacity="1" fill-rule="nonzero" />
    </g>
  </g>
  <g clip-path="url(#762bd7b500)">
    <g clip-path="url(#58a647a5a3)">
      <path stroke-linecap="butt"
        transform="matrix(0, -0.943754, 0.943754, 0, 134.622154, 221.249517)" fill="none"
        stroke-linejoin="miter"
        d="M 16.328059 -0.0011235 C 20.657509 -0.0011235 24.81312 1.720723 27.871881 4.783623 C 30.934782 7.846524 32.656628 11.997995 32.656628 16.327446 L 32.656628 96.091165 C 32.656628 100.420616 30.934782 104.572087 27.871881 107.634988 C 24.81312 110.697888 20.657509 112.419735 16.328059 112.419735 C 11.998608 112.419735 7.842997 110.697888 4.784236 107.634988 C 1.721335 104.572087 -0.000511286 100.420616 -0.000511286 96.091165 L -0.000511286 16.327446 C -0.000511286 11.997995 1.721335 7.846524 4.784236 4.783623 C 7.842997 1.720723 11.998608 -0.0011235 16.328059 -0.0011235 Z M 16.328059 -0.0011235 "
        stroke="#545454" stroke-width="1.589397" stroke-opacity="1" stroke-miterlimit="4" />
    </g>
  </g>
  <g clip-path="url(#7a6968df48)">
    <g clip-path="url(#c061e49cc2)">
      <path fill="#d9d9d9"
        d="M 175.261719 193.601562 L 199.738281 193.601562 L 199.738281 218.082031 L 175.261719 218.082031 Z M 175.261719 193.601562 "
        fill-opacity="1" fill-rule="nonzero" />
    </g>
  </g>
  <g clip-path="url(#3a209f776f)">
    <g clip-path="url(#ba277378f1)">
      <path stroke-linecap="butt"
        transform="matrix(0.943754, 0, 0, 0.943754, 175.259789, 193.599772)" fill="none"
        stroke-linejoin="miter"
        d="M 12.969702 0.00189712 C 5.804999 0.00189712 0.00204477 5.804851 0.00204477 12.969554 C 0.00204477 20.130118 5.804999 25.937211 12.969702 25.937211 C 20.130266 25.937211 25.937359 20.130118 25.937359 12.969554 C 25.937359 5.804851 20.130266 0.00189712 12.969702 0.00189712 Z M 12.969702 0.00189712 "
        stroke="#545454" stroke-width="1.589397" stroke-opacity="1" stroke-miterlimit="4" />
    </g>
  </g>
</svg>