<svg xmlns="http://www.w3.org/2000/svg" xmlns:xlink="http://www.w3.org/1999/xlink" width="500" zoomAndPan="magnify" viewBox="0 0 375 374.999991" height="500" preserveAspectRatio="xMidYMid meet" version="1.0"><defs><clipPath id="41ae299923"><path d="M 143.75 123 L 231.25 123 L 231.25 329.25 L 143.75 329.25 Z M 143.75 123 " clip-rule="nonzero"/></clipPath><clipPath id="1de47a0707"><path d="M 143.75 123.007812 L 231.242188 123.007812 L 231.242188 329.242188 L 143.75 329.242188 Z M 143.75 123.007812 " clip-rule="nonzero"/></clipPath><clipPath id="e3397996da"><path d="M 155.75 54.960938 L 219.25 54.960938 L 219.25 99.378906 L 155.75 99.378906 Z M 155.75 54.960938 " clip-rule="nonzero"/></clipPath><clipPath id="482b189132"><path d="M 162.992188 59.082031 L 173.230469 59.082031 L 173.230469 69.613281 L 162.992188 69.613281 Z M 162.992188 59.082031 " clip-rule="nonzero"/></clipPath><clipPath id="fbc9ff3190"><path d="M 201.757812 59.082031 L 211.992188 59.082031 L 211.992188 69.613281 L 201.757812 69.613281 Z M 201.757812 59.082031 " clip-rule="nonzero"/></clipPath><clipPath id="fdda6dd481"><path d="M 182.519531 59.082031 L 192.757812 59.082031 L 192.757812 69.613281 L 182.519531 69.613281 Z M 182.519531 59.082031 " clip-rule="nonzero"/></clipPath><clipPath id="bb34b1440a"><path d="M 175.25 110.476562 L 199.75 110.476562 L 199.75 302.9375 L 175.25 302.9375 Z M 175.25 110.476562 " clip-rule="nonzero"/></clipPath><clipPath id="9778561368"><path d="M 187.5 110.476562 C 190.75 110.476562 193.863281 111.769531 196.160156 114.066406 C 198.460938 116.363281 199.75 119.480469 199.75 122.726562 L 199.75 290.632812 C 199.75 293.878906 198.460938 296.996094 196.160156 299.292969 C 193.863281 301.589844 190.75 302.882812 187.5 302.882812 C 184.25 302.882812 181.136719 301.589844 178.839844 299.292969 C 176.539062 296.996094 175.25 293.878906 175.25 290.632812 L 175.25 122.726562 C 175.25 119.480469 176.539062 116.363281 178.839844 114.066406 C 181.136719 111.769531 184.25 110.476562 187.5 110.476562 Z M 187.5 110.476562 " clip-rule="nonzero"/></clipPath><clipPath id="f37dfa4fb6"><path d="M 175.25 110.476562 L 199.851562 110.476562 L 199.851562 303 L 175.25 303 Z M 175.25 110.476562 " clip-rule="nonzero"/></clipPath><clipPath id="8016c2ed90"><path d="M 187.496094 110.507812 C 190.742188 110.507812 193.859375 111.796875 196.15625 114.09375 C 198.453125 116.390625 199.742188 119.503906 199.742188 122.753906 L 199.742188 290.601562 C 199.742188 293.851562 198.453125 296.964844 196.15625 299.261719 C 193.859375 301.558594 190.742188 302.847656 187.496094 302.847656 C 184.25 302.847656 181.132812 301.558594 178.835938 299.261719 C 176.539062 296.964844 175.25 293.851562 175.25 290.601562 L 175.25 122.753906 C 175.25 119.503906 176.539062 116.390625 178.835938 114.09375 C 181.132812 111.796875 184.25 110.507812 187.496094 110.507812 Z M 187.496094 110.507812 " clip-rule="nonzero"/></clipPath><clipPath id="2a7435f51e"><path d="M 145.464844 194.425781 L 229.875 194.425781 L 229.875 218.925781 L 145.464844 218.925781 Z M 145.464844 194.425781 " clip-rule="nonzero"/></clipPath><clipPath id="a743df5219"><path d="M 145.464844 206.675781 C 145.464844 203.425781 146.753906 200.3125 149.050781 198.011719 C 151.351562 195.714844 154.464844 194.425781 157.714844 194.425781 L 217.554688 194.425781 C 220.804688 194.425781 223.917969 195.714844 226.21875 198.011719 C 228.515625 200.3125 229.804688 203.425781 229.804688 206.675781 C 229.804688 209.925781 228.515625 213.039062 226.21875 215.335938 C 223.917969 217.636719 220.804688 218.925781 217.554688 218.925781 L 157.714844 218.925781 C 154.464844 218.925781 151.351562 217.636719 149.050781 215.335938 C 146.753906 213.039062 145.464844 209.925781 145.464844 206.675781 Z M 145.464844 206.675781 " clip-rule="nonzero"/></clipPath><clipPath id="e08c18452d"><path d="M 145.464844 194.324219 L 229.464844 194.324219 L 229.464844 218.925781 L 145.464844 218.925781 Z M 145.464844 194.324219 " clip-rule="nonzero"/></clipPath><clipPath id="45440997ca"><path d="M 145.476562 206.679688 C 145.476562 203.429688 146.769531 200.316406 149.066406 198.019531 C 151.363281 195.722656 154.476562 194.433594 157.722656 194.433594 L 217.546875 194.433594 C 220.792969 194.433594 223.90625 195.722656 226.203125 198.019531 C 228.5 200.316406 229.792969 203.429688 229.792969 206.679688 C 229.792969 209.925781 228.5 213.042969 226.203125 215.339844 C 223.90625 217.636719 220.792969 218.925781 217.546875 218.925781 L 157.722656 218.925781 C 154.476562 218.925781 151.363281 217.636719 149.066406 215.339844 C 146.769531 213.042969 145.476562 209.925781 145.476562 206.679688 Z M 145.476562 206.679688 " clip-rule="nonzero"/></clipPath><clipPath id="98a1e8b03a"><path d="M 177.773438 196.953125 L 197.226562 196.953125 L 197.226562 216.40625 L 177.773438 216.40625 Z M 177.773438 196.953125 " clip-rule="nonzero"/></clipPath><clipPath id="1f8e7b43b7"><path d="M 187.5 196.953125 C 182.128906 196.953125 177.773438 201.308594 177.773438 206.679688 C 177.773438 212.050781 182.128906 216.40625 187.5 216.40625 C 192.871094 216.40625 197.226562 212.050781 197.226562 206.679688 C 197.226562 201.308594 192.871094 196.953125 187.5 196.953125 Z M 187.5 196.953125 " clip-rule="nonzero"/></clipPath></defs><path stroke-linecap="butt" transform="matrix(-0.414175, -0.625267, 0.625267, -0.414175, 185.311341, 124.449484)" fill="none" stroke-linejoin="miter" d="M -0.00030654 3.500154 L 46.812834 3.49727 " stroke="#830000" stroke-width="7" stroke-opacity="1" stroke-miterlimit="4"/><path stroke-linecap="butt" transform="matrix(0.413969, -0.625403, 0.625403, 0.413969, 185.31011, 121.549269)" fill="none" stroke-linejoin="miter" d="M -0.00132419 3.502441 L 46.804657 3.500459 " stroke="#ff6341" stroke-width="7" stroke-opacity="1" stroke-miterlimit="4"/><g clip-path="url(#41ae299923)"><path fill="#004aad" d="M 143.75 123 L 231.25 123 L 231.25 329.101562 L 143.75 329.101562 Z M 143.75 123 " fill-opacity="1" fill-rule="nonzero"/></g><g clip-path="url(#1de47a0707)"><path stroke-linecap="butt" transform="matrix(0.75, 0, 0, 0.75, 143.750004, 123.009206)" fill="none" stroke-linejoin="miter" d="M -0.00000514722 -0.00185736 L 116.65626 -0.00185736 L 116.65626 274.977345 L -0.00000514722 274.977345 Z M -0.00000514722 -0.00185736 " stroke="#003173" stroke-width="12" stroke-opacity="1" stroke-miterlimit="4"/></g><g clip-path="url(#e3397996da)"><path fill="#262525" d="M 155.75 54.960938 L 219.253906 54.960938 L 219.253906 99.378906 L 155.75 99.378906 Z M 155.75 54.960938 " fill-opacity="1" fill-rule="nonzero"/></g><g clip-path="url(#482b189132)"><path fill="#000000" d="M 162.992188 59.082031 L 173.230469 59.082031 L 173.230469 69.597656 L 162.992188 69.597656 Z M 162.992188 59.082031 " fill-opacity="1" fill-rule="nonzero"/></g><g clip-path="url(#fbc9ff3190)"><path fill="#000000" d="M 201.757812 59.082031 L 211.992188 59.082031 L 211.992188 69.597656 L 201.757812 69.597656 Z M 201.757812 59.082031 " fill-opacity="1" fill-rule="nonzero"/></g><g clip-path="url(#fdda6dd481)"><path fill="#000000" d="M 182.519531 59.082031 L 192.757812 59.082031 L 192.757812 69.597656 L 182.519531 69.597656 Z M 182.519531 59.082031 " fill-opacity="1" fill-rule="nonzero"/></g><path stroke-linecap="butt" transform="matrix(0, -0.75, 0.75, 0, 184.87073, 122.995715)" fill="none" stroke-linejoin="miter" d="M -0.000504836 3.500485 L 31.494289 3.500485 " stroke="#ff3131" stroke-width="7" stroke-opacity="1" stroke-miterlimit="4"/><g clip-path="url(#bb34b1440a)"><g clip-path="url(#9778561368)"><path fill="#ffffff" d="M 175.25 110.476562 L 199.75 110.476562 L 199.75 302.839844 L 175.25 302.839844 Z M 175.25 110.476562 " fill-opacity="1" fill-rule="nonzero"/></g></g><g clip-path="url(#f37dfa4fb6)"><g clip-path="url(#8016c2ed90)"><path stroke-linecap="butt" transform="matrix(0.75, 0, 0, 0.75, 175.250002, 110.506318)" fill="none" stroke-linejoin="miter" d="M 16.328124 0.00199328 C 20.656249 0.00199328 24.812499 1.720743 27.874999 4.783244 C 30.9375 7.845744 32.65625 11.996786 32.65625 16.330119 L 32.65625 240.127009 C 32.65625 244.460343 30.9375 248.611385 27.874999 251.673885 C 24.812499 254.736385 20.656249 256.455135 16.328124 256.455135 C 11.999998 256.455135 7.843748 254.736385 4.781248 251.673885 C 1.718748 248.611385 -0.00000238922 244.460343 -0.00000238922 240.127009 L -0.00000238922 16.330119 C -0.00000238922 11.996786 1.718748 7.845744 4.781248 4.783244 C 7.843748 1.720743 11.999998 0.00199328 16.328124 0.00199328 Z M 16.328124 0.00199328 " stroke="#545454" stroke-width="2" stroke-opacity="1" stroke-miterlimit="4"/></g></g><g clip-path="url(#2a7435f51e)"><g clip-path="url(#a743df5219)"><path fill="#ffffff" d="M 145.464844 218.925781 L 145.464844 194.425781 L 229.777344 194.425781 L 229.777344 218.925781 Z M 145.464844 218.925781 " fill-opacity="1" fill-rule="nonzero"/></g></g><g clip-path="url(#e08c18452d)"><g clip-path="url(#45440997ca)"><path stroke-linecap="butt" transform="matrix(0, -0.75, 0.75, 0, 145.478052, 218.925514)" fill="none" stroke-linejoin="miter" d="M 16.327769 -0.00198566 C 20.661103 -0.00198566 24.812145 1.721973 27.874645 4.784473 C 30.937145 7.846973 32.655895 11.998015 32.655895 16.32614 L 32.655895 96.091771 C 32.655895 100.419896 30.937145 104.570938 27.874645 107.633438 C 24.812145 110.695938 20.661103 112.419897 16.327769 112.419897 C 11.999644 112.419897 7.843394 110.695938 4.780893 107.633438 C 1.718393 104.570938 -0.000356835 100.419896 -0.000356835 96.091771 L -0.000356835 16.32614 C -0.000356835 11.998015 1.718393 7.846973 4.780893 4.784473 C 7.843394 1.721973 11.999644 -0.00198566 16.327769 -0.00198566 Z M 16.327769 -0.00198566 " stroke="#545454" stroke-width="2" stroke-opacity="1" stroke-miterlimit="4"/></g></g><g clip-path="url(#98a1e8b03a)"><g clip-path="url(#1f8e7b43b7)"><path fill="#d9d9d9" d="M 177.773438 196.953125 L 197.226562 196.953125 L 197.226562 216.40625 L 177.773438 216.40625 Z M 177.773438 196.953125 " fill-opacity="1" fill-rule="nonzero"/><path stroke-linecap="butt" transform="matrix(0.75, 0, 0, 0.75, 177.772728, 196.952272)" fill="none" stroke-linejoin="miter" d="M 12.969697 0.00113751 C 5.808238 0.00113751 0.000945965 5.80843 0.000945965 12.969888 C 0.000945965 20.131347 5.808238 25.938639 12.969697 25.938639 C 20.131156 25.938639 25.938448 20.131347 25.938448 12.969888 C 25.938448 5.80843 20.131156 0.00113751 12.969697 0.00113751 Z M 12.969697 0.00113751 " stroke="#545454" stroke-width="2" stroke-opacity="1" stroke-miterlimit="4"/></g></g></svg>